# xmcd
#
# Track frame offsets:
#	150
#	13585
#	26585
#	39570
#	52495
#	62995
#	76447
#	89327
#	101980
#	113660
#	127740
#	142275
#	153772
#	165447
#	178012
#	193445
#	206312
#
# Disc length: 2908 seconds
#
# Revision: 2
# Processed by: cddbd v1.5.2PL0 Copyright (c) Steve Scherf et al.
# Submitted via: dBpowerAMP V4.0
#
DISCID=ef0b5a11
DTITLE=Jimmie Rodgers - On The Way Up  1929
DYEAR=1991
DGENRE=Country
TTITLE0=High Powered Mama
TTITLE1=Tuck Away My Lonesome Blues
TTITLE2=Frankie And Johnny
TTITLE3=Frankie And Johnny
TTITLE4=I'm Sorry We Met
TTITLE5=Train Whistle Blues
TTITLE6=Everybody Does It In Hawaii
TTITLE7=Jimmie's Texas Blues
TTITLE8=Home Call
TTITLE9=Blue Yodel No. 6
TTITLE10=Yodeling Cowboy
TTITLE11=My Rough And Rowdy Ways
TTITLE12=The Land Of My Boyhood Dreams
TTITLE13=The Land Of My Boyhood Dreams
TTITLE14=Whisper Your Mother's Name
TTITLE15=I've Ranged, I've Roamed, I've Travelled
TTITLE16=Hobo Bill's Last Ride
EXTD=
EXTT0=
EXTT1=
EXTT2=
EXTT3=
EXTT4=
EXTT5=
EXTT6=
EXTT7=
EXTT8=
EXTT9=
EXTT10=
EXTT11=
EXTT12=
EXTT13=
EXTT14=
EXTT15=
EXTT16=
PLAYORDER=
